<svg width="34" height="22" viewBox="0 0 34 22" xmlns="http://www.w3.org/2000/svg"><title>GooglePlus-black</title><path d="M30.207 9.104V5.36h-2.668v3.743h-3.843v2.673h3.843v3.85h2.668v-3.85h3.736V9.104h-3.736zM10.781 8.89v4.277s4.141-.005 5.828-.005c-.913 2.772-2.333 4.282-5.828 4.282-3.537 0-6.298-2.872-6.298-6.415 0-3.544 2.76-6.416 6.298-6.416 1.87 0 3.077.658 4.185 1.576.887-.888.813-1.015 3.07-3.15A10.73 10.73 0 0 0 10.78.23C4.827.229 0 5.064 0 11.029c0 5.964 4.827 10.8 10.78 10.8 8.9 0 11.075-7.764 10.354-12.939H10.781z" fill="#FFF" fill-rule="evenodd"/></svg>