<svg width="25" height="23" viewBox="0 0 25 23" xmlns="http://www.w3.org/2000/svg"><title>LinkedIn-black</title><path d="M24.171 22.65H19.02v-7.631c0-1.998-.806-3.361-2.579-3.361-1.356 0-2.11.92-2.46 1.807-.132.318-.111.761-.111 1.205v7.98H8.764s.066-13.518 0-14.746h5.105v2.314c.301-1.012 1.932-2.456 4.536-2.456 3.23 0 5.766 2.12 5.766 6.688v8.2zM3.601 6.06H3.57C1.924 6.06.857 4.931.857 3.502c0-1.457 1.098-2.56 2.776-2.56 1.676 0 2.707 1.1 2.74 2.556 0 1.429-1.064 2.56-2.772 2.56zM1.445 7.903H5.99v14.745H1.445V7.904z" fill="#FFF" fill-rule="evenodd"/></svg>