<svg width="26" height="22" viewBox="0 0 26 22" xmlns="http://www.w3.org/2000/svg"><title>Twitter-black</title><path d="M25.371 2.78a9.798 9.798 0 0 1-2.908.827A5.238 5.238 0 0 0 24.69.7a9.902 9.902 0 0 1-3.218 1.275 4.967 4.967 0 0 0-3.696-1.66c-2.795 0-5.063 2.355-5.063 5.258 0 .412.044.813.13 1.198-4.208-.22-7.94-2.311-10.439-5.496A5.406 5.406 0 0 0 1.72 3.92c0 1.824.894 3.433 2.253 4.377a4.926 4.926 0 0 1-2.295-.656v.064c0 2.549 1.746 4.675 4.064 5.156a4.774 4.774 0 0 1-1.334.185 4.86 4.86 0 0 1-.954-.093c.645 2.088 2.514 3.609 4.731 3.65a9.924 9.924 0 0 1-7.498 2.18 13.977 13.977 0 0 0 7.763 2.36c9.317 0 14.41-8.011 14.41-14.96 0-.229-.004-.457-.013-.682A10.472 10.472 0 0 0 25.37 2.78" fill="#FFF" fill-rule="evenodd"/></svg>