<svg width="39" height="38" viewBox="0 0 39 38" xmlns="http://www.w3.org/2000/svg"><title>Fill 1</title><path d="M34.717 34.054H3.944v-.915c0-1.5.932-2.84 2.344-3.343l10.675-3.965V20.79l-.412-.534c-1-1.295-3.596-5.242-3.596-7.898 0-4.56 2.912-8.411 6.36-8.411 3.455 0 6.375 3.85 6.375 8.41 0 2.973-1.23 5.751-3.21 7.249l-.782.592v5.631l10.638 3.978c1.401.498 2.38 1.869 2.38 3.333v.915zm-1.03-7.955l-8.044-3.007v-.994c2.515-2.316 3.993-5.88 3.993-9.741C29.636 5.544 25.004 0 19.316 0 13.632 0 9.01 5.544 9.01 12.357c0 3.806 2.871 8.178 4.008 9.757v.974l-8.078 3C1.985 27.139 0 29.973 0 33.139V38h38.662v-4.861a7.503 7.503 0 0 0-4.974-7.04z" fill="#FFF" fill-rule="evenodd"/></svg>